# This file uses centimeters as units for non-parametric coordinates.

mtllib Asteroid_01_Sm.mtl
g default
v -1.318060 3.440805 6.331077
v 6.127196 3.767792 6.503409
v -3.042899 4.264975 -4.635267
v 6.195244 4.649269 -3.642922
v -2.141524 3.713251 3.543947
v 6.468813 4.199034 4.392577
v -3.138172 4.361858 0.619769
v 6.761180 4.830410 1.485917
v -3.545631 4.286139 -2.324638
v 7.109041 4.889566 -1.292375
v 4.003703 4.573442 -6.143262
v 5.129409 5.301376 -3.065933
v 5.337831 5.841850 0.782807
v 5.093823 4.592422 5.913049
v 4.991278 3.488441 8.066065
v 1.077668 4.559763 -6.696335
v 2.115829 5.258085 -4.304114
v 3.274094 5.738823 0.268428
v 3.043874 4.390318 6.726294
v 3.395522 3.327606 8.954063
v -1.674830 4.427816 -5.584900
v -0.390258 5.291658 -3.284488
v 0.396417 5.644487 0.370650
v -0.150104 4.505657 5.433219
v 0.835473 3.242954 9.462547
v 7.031281 0.061769 7.388707
v 5.595216 0.094290 9.285676
v 3.647996 0.114128 10.442937
v 0.372458 0.113558 10.409704
v -2.349236 0.055086 6.998865
v -3.358095 0.000000 3.757570
v -5.167285 0.000000 0.577729
v -5.254341 0.000000 -3.095104
v -4.503882 0.000000 -6.229081
v -2.760444 0.000000 -7.669034
v 0.727245 0.000000 -9.561454
v 4.436591 0.000000 -8.972090
v 7.245107 0.000000 -5.496557
v 8.434822 0.000000 -2.145629
v 8.003853 0.000000 1.502031
v 7.526665 0.019144 4.902275
v 6.824620 1.738758 7.569420
v 5.459368 1.589352 9.421665
v 3.596086 1.505627 10.533973
v 0.479373 1.481764 10.521425
v -2.107663 1.526886 7.165470
v -3.073297 1.658247 3.945529
v -4.887685 2.408590 0.785835
v -4.877240 2.639589 -2.837632
v -4.179939 2.706179 -5.681991
v -2.522493 2.844515 -6.945837
v 0.803022 3.008196 -8.566325
v 4.333902 3.006262 -8.000513
v 7.000460 2.995550 -4.861926
v 8.125927 3.019053 -1.817584
v 7.714526 2.664541 1.744545
v 7.283782 1.941122 5.113062
v -1.318060 -4.104408 5.147042
v 6.127196 -4.408211 5.303292
v -3.042899 -5.490837 -4.635267
v 6.195244 -6.128166 -3.642921
v -2.141524 -4.303526 2.637934
v 6.468813 -4.812248 3.368362
v -3.327765 -5.026711 -0.050979
v 6.761180 -5.426628 0.881722
v -3.545631 -5.436750 -2.370001
v 7.109041 -6.060350 -1.489123
v 4.003703 -6.002413 -6.143262
v 5.129409 -7.209649 -3.065933
v 5.337831 -6.774742 0.281725
v 5.093823 -5.344294 4.758731
v 4.991278 -4.164202 6.735715
v 1.077668 -5.979727 -6.696335
v 2.115829 -7.137853 -4.304114
v 3.274094 -6.789808 -0.157218
v 3.043874 -5.177990 5.502491
v 3.395522 -4.025539 7.549707
v -1.674830 -5.760902 -5.584900
v -0.390258 -7.193530 -3.284488
v 0.396417 -6.714485 -0.069988
v -0.150104 -5.307346 4.320271
v 0.835473 -3.946138 8.015813
v 6.824620 -2.184237 6.494627
v 5.459368 -2.122305 8.270638
v 3.596086 -2.084997 9.340578
v 0.479373 -2.047985 9.348583
v -2.107663 -1.916561 6.244455
v -3.073297 -1.932013 3.208009
v -4.887685 -2.462101 0.337323
v -4.877240 -2.795225 -2.837632
v -4.179939 -2.905663 -5.681991
v -2.522493 -3.135086 -6.945837
v 0.803022 -3.406538 -8.566325
v 4.333902 -3.403334 -8.000513
v 7.000460 -3.385569 -4.861926
v 8.125927 -3.351004 -1.937309
v 7.714526 -2.782337 1.102421
v 7.283782 -2.265831 4.154628
vt 0.204486 0.287382
vt 0.178570 0.396514
vt 0.016842 0.364528
vt 0.113428 0.208173
vt 0.839081 0.126304
vt 0.939442 0.266223
vt 0.777251 0.339225
vt 0.749126 0.230728
vt 0.312033 0.258087
vt 0.321321 0.387229
vt 0.203424 0.787900
vt 0.312090 0.805337
vt 0.260551 0.944426
vt 0.117590 0.871823
vt 0.262889 0.116114
vt 0.467643 0.231932
vt 0.456909 0.072192
vt 0.470131 0.373109
vt 0.471589 0.814524
vt 0.464862 0.980364
vt 0.629289 0.225624
vt 0.667350 0.068172
vt 0.627460 0.360439
vt 0.637220 0.807562
vt 0.677782 0.964327
vt 0.757821 0.787369
vt 0.848613 0.889466
vt 0.787633 0.669020
vt 0.961680 0.715720
vt 0.634836 0.662100
vt 0.475071 0.667455
vt 0.322290 0.668934
vt 0.182348 0.685167
vt 0.031504 0.737952
vt 0.796853 0.500444
vt 0.993011 0.488280
vt 0.634134 0.509600
vt 0.475055 0.518750
vt 0.321270 0.528828
vt 0.170243 0.539950
vt -0.008314 0.559336
vt -0.168970 0.832128
vt -0.025074 1.011272
vt -0.244876 0.589070
vt -0.220747 0.299557
vt -0.023671 0.050913
vt 0.178856 -0.068183
vt 0.428619 -0.123549
vt 0.743643 -0.157264
vt 0.995407 -0.059016
vt 1.147238 0.108904
vt 1.270242 0.468361
vt 1.209885 0.816774
vt 0.991665 1.074867
vt 0.754483 1.182829
vt 0.444697 1.187243
vt 0.162427 1.118340
vt 0.165804 0.252213
vt 0.042638 0.393637
vt -0.101682 0.349460
vt 0.056102 0.146104
vt 0.893861 0.085837
vt 0.982002 0.209220
vt 0.853333 0.302183
vt 0.799955 0.211049
vt 0.301075 0.188818
vt 0.227251 0.338128
vt 0.191022 0.788379
vt 0.306489 0.826522
vt 0.222791 0.976180
vt 0.071441 0.898265
vt 0.226347 0.048333
vt 0.474250 0.210171
vt 0.452769 0.036655
vt 0.481552 0.391847
vt 0.477745 0.835204
vt 0.462980 1.004121
vt 0.664379 0.162845
vt 0.715673 0.010609
vt 0.706234 0.376907
vt 0.648532 0.835543
vt 0.703284 0.982174
vt 0.763322 0.793036
vt 0.866264 0.912763
vt 0.885283 0.673076
vt 1.026891 0.733332
vt 0.720501 0.714778
vt 0.501558 0.714226
vt 0.227658 0.701543
vt 0.106929 0.693225
vt -0.040524 0.761573
vt 0.911808 0.492838
vt 1.066981 0.484277
vt 0.769210 0.537780
vt 0.499157 0.577589
vt 0.174191 0.539587
vt 0.058358 0.557334
vt -0.102944 0.572033
vt 0.162427 1.118340
vt -0.025074 1.011272
vt 0.444697 1.187243
vt 0.754483 1.182829
vt 0.991665 1.074867
vt 1.209885 0.816774
vt 1.270242 0.468361
vt 1.147238 0.108904
vt 0.995407 -0.059016
vt 0.743643 -0.157264
vt 0.428619 -0.123549
vt 0.178856 -0.068183
vt -0.023671 0.050913
vt -0.220747 0.299557
vt -0.244876 0.589070
vt -0.168970 0.832128
vn -0.699564 0.601592 0.385613
vn -0.848598 0.286326 0.444858
vn -0.416135 0.303086 0.857304
vn -0.322053 0.772082 0.547879
vn -0.751642 0.474490 -0.458142
vn -0.523266 0.801082 -0.290622
vn -0.308672 0.864671 -0.396315
vn -0.476693 0.507922 -0.717481
vn -0.635712 0.698147 0.329333
vn -0.250725 0.925990 0.282276
vn 0.695452 0.608674 0.381919
vn 0.870760 0.277797 0.405717
vn 0.949012 0.254250 0.186367
vn 0.718193 0.647102 0.255846
vn -0.866786 0.306684 0.393226
vn -0.576973 0.793765 0.192456
vn -0.887768 0.369292 0.274758
vn -0.202900 0.975461 0.085487
vn 0.954424 0.258652 0.148909
vn 0.717356 0.684064 0.132121
vn -0.553539 0.830497 -0.062204
vn -0.905579 0.415714 -0.084316
vn -0.196523 0.972779 -0.122799
vn 0.941836 0.319165 -0.105256
vn 0.657553 0.739568 -0.143746
vn 0.786521 0.410095 -0.461744
vn 0.583665 0.718309 -0.378638
vn 0.291109 0.848012 -0.442867
vn 0.428009 0.530015 -0.732047
vn 0.226263 0.954657 -0.193482
vn 0.226708 0.971470 0.069642
vn 0.259906 0.912323 0.316410
vn 0.412499 0.743751 0.526003
vn 0.621529 0.304154 0.721937
vn -0.063874 0.884845 -0.461486
vn -0.133312 0.560263 -0.817517
vn -0.016242 0.981729 -0.189590
vn -0.028155 0.998206 0.052845
vn -0.005924 0.951895 0.306366
vn 0.127889 0.790809 0.598553
vn 0.253094 0.300897 0.919459
vn 0.653571 -0.185087 0.733886
vn 0.908712 -0.089890 0.407631
vn 0.252243 -0.250946 0.934559
vn -0.431506 -0.226416 0.873235
vn -0.879512 -0.099572 0.465343
vn -0.910791 -0.057662 0.408821
vn -0.961149 -0.032688 0.274089
vn -0.994011 0.003479 -0.109223
vn -0.847228 0.007593 -0.531175
vn -0.550458 0.011803 -0.834780
vn -0.163429 0.016530 -0.986417
vn 0.499925 0.015613 -0.865928
vn 0.867904 0.011248 -0.496604
vn 0.993837 0.003080 -0.110806
vn 0.990519 -0.011258 0.136913
vn 0.984909 -0.025732 0.171149
vn -0.706617 -0.581745 0.402821
vn -0.326018 -0.761324 0.560444
vn -0.373052 -0.521476 0.767395
vn -0.814743 -0.378988 0.438819
vn -0.798207 -0.357230 -0.485029
vn -0.511443 -0.387882 -0.766795
vn -0.419583 -0.743184 -0.521180
vn -0.667537 -0.651459 -0.360548
vn -0.671119 -0.642404 0.370023
vn -0.284527 -0.894449 0.344972
vn 0.711653 -0.581908 0.393616
vn 0.760190 -0.589925 0.272212
vn 0.947568 -0.258375 0.188035
vn 0.845034 -0.356136 0.398854
vn -0.849866 -0.334862 0.406934
vn -0.653730 -0.698694 0.290627
vn -0.895632 -0.332369 0.295593
vn -0.235215 -0.943852 0.231986
vn 0.770137 -0.599311 0.218441
vn 0.957973 -0.230930 0.170176
vn -0.695822 -0.718061 -0.014807
vn -0.946564 -0.312994 -0.077792
vn -0.276107 -0.958703 -0.068211
vn 0.772804 -0.627840 -0.092685
vn 0.965256 -0.245390 -0.089806
vn 0.708320 -0.550134 -0.442307
vn 0.822446 -0.300026 -0.483288
vn 0.389183 -0.714390 -0.581535
vn 0.457077 -0.405721 -0.791499
vn 0.305958 -0.941270 -0.142832
vn 0.272849 -0.936376 0.220802
vn 0.317265 -0.873577 0.369063
vn 0.422376 -0.724500 0.544699
vn 0.564054 -0.479929 0.671946
vn -0.083678 -0.771655 -0.630513
vn -0.143600 -0.436123 -0.888356
vn -0.027127 -0.986680 -0.160397
vn -0.021754 -0.979857 0.198511
vn 0.009521 -0.928830 0.370383
vn 0.126435 -0.782429 0.609770
vn 0.218015 -0.542149 0.811507
s 1
g polySurface11
usemtl lambert3SG
f 1/1/1 46/4/2 45/3/3 25/2/4
f 50/5/5 3/8/6 21/7/7 51/6/8
f 5/9/9 1/1/1 25/2/4 24/10/10
f 2/11/11 42/14/12 57/13/13 6/12/14
f 5/9/9 47/15/15 46/4/2 1/1/1
f 7/16/16 48/17/17 47/15/15 5/9/9
f 7/16/16 5/9/9 24/10/10 23/18/18
f 57/13/13 56/20/19 8/19/20 6/12/14
f 9/21/21 49/22/22 48/17/17 7/16/16
f 9/21/21 7/16/16 23/18/18 22/23/23
f 56/20/19 55/25/24 10/24/25 8/19/20
f 3/8/6 50/5/5 49/22/22 9/21/21
f 3/8/6 9/21/21 22/23/23 21/7/7
f 55/25/24 54/27/26 4/26/27 10/24/25
f 11/28/28 4/26/27 54/27/26 53/29/29
f 12/30/30 10/24/25 4/26/27 11/28/28
f 13/31/31 8/19/20 10/24/25 12/30/30
f 14/32/32 6/12/14 8/19/20 13/31/31
f 15/33/33 2/11/11 6/12/14 14/32/32
f 43/34/34 42/14/12 2/11/11 15/33/33
f 16/35/35 11/28/28 53/29/29 52/36/36
f 17/37/37 12/30/30 11/28/28 16/35/35
f 18/38/38 13/31/31 12/30/30 17/37/37
f 19/39/39 14/32/32 13/31/31 18/38/38
f 20/40/40 15/33/33 14/32/32 19/39/39
f 44/41/41 43/34/34 15/33/33 20/40/40
f 21/7/7 16/35/35 52/36/36 51/6/8
f 22/23/23 17/37/37 16/35/35 21/7/7
f 23/18/18 18/38/38 17/37/37 22/23/23
f 24/10/10 19/39/39 18/38/38 23/18/18
f 25/2/4 20/40/40 19/39/39 24/10/10
f 45/3/3 44/41/41 20/40/40 25/2/4
f 27/114/42 26/100/43 42/14/12 43/34/34
f 28/113/44 27/114/42 43/34/34 44/41/41
f 29/112/45 28/113/44 44/41/41 45/3/3
f 46/4/2 30/111/46 29/112/45 45/3/3
f 47/15/15 31/110/47 30/111/46 46/4/2
f 48/17/17 32/109/48 31/110/47 47/15/15
f 49/22/22 33/108/49 32/109/48 48/17/17
f 50/5/5 34/107/50 33/108/49 49/22/22
f 34/107/50 50/5/5 51/6/8 35/106/51
f 52/36/36 36/105/52 35/106/51 51/6/8
f 53/29/29 37/104/53 36/105/52 52/36/36
f 54/27/26 38/103/54 37/104/53 53/29/29
f 39/102/55 38/103/54 54/27/26 55/25/24
f 40/101/56 39/102/55 55/25/24 56/20/19
f 41/99/57 40/101/56 56/20/19 57/13/13
f 42/14/12 26/100/43 41/99/57 57/13/13
f 58/58/58 82/59/59 86/60/60 87/61/61
f 91/62/62 92/63/63 78/64/64 60/65/65
f 62/66/66 81/67/67 82/59/59 58/58/58
f 59/68/68 63/69/69 98/70/70 83/71/71
f 62/66/66 58/58/58 87/61/61 88/72/72
f 64/73/73 62/66/66 88/72/72 89/74/74
f 64/73/73 80/75/75 81/67/67 62/66/66
f 98/70/70 63/69/69 65/76/76 97/77/77
f 66/78/78 64/73/73 89/74/74 90/79/79
f 66/78/78 79/80/80 80/75/75 64/73/73
f 97/77/77 65/76/76 67/81/81 96/82/82
f 60/65/65 66/78/78 90/79/79 91/62/62
f 60/65/65 78/64/64 79/80/80 66/78/78
f 96/82/82 67/81/81 61/83/83 95/84/84
f 68/85/85 94/86/86 95/84/84 61/83/83
f 69/87/87 68/85/85 61/83/83 67/81/81
f 70/88/88 69/87/87 67/81/81 65/76/76
f 71/89/89 70/88/88 65/76/76 63/69/69
f 72/90/90 71/89/89 63/69/69 59/68/68
f 84/91/91 72/90/90 59/68/68 83/71/71
f 73/92/92 93/93/93 94/86/86 68/85/85
f 74/94/94 73/92/92 68/85/85 69/87/87
f 75/95/95 74/94/94 69/87/87 70/88/88
f 76/96/96 75/95/95 70/88/88 71/89/89
f 77/97/97 76/96/96 71/89/89 72/90/90
f 85/98/98 77/97/97 72/90/90 84/91/91
f 78/64/64 92/63/63 93/93/93 73/92/92
f 79/80/80 78/64/64 73/92/92 74/94/94
f 80/75/75 79/80/80 74/94/94 75/95/95
f 81/67/67 80/75/75 75/95/95 76/96/96
f 82/59/59 81/67/67 76/96/96 77/97/97
f 86/60/60 82/59/59 77/97/97 85/98/98
f 27/42/42 84/91/91 83/71/71 26/43/43
f 28/44/44 85/98/98 84/91/91 27/42/42
f 29/45/45 86/60/60 85/98/98 28/44/44
f 87/61/61 86/60/60 29/45/45 30/46/46
f 88/72/72 87/61/61 30/46/46 31/47/47
f 89/74/74 88/72/72 31/47/47 32/48/48
f 90/79/79 89/74/74 32/48/48 33/49/49
f 91/62/62 90/79/79 33/49/49 34/50/50
f 34/50/50 35/51/51 92/63/63 91/62/62
f 93/93/93 92/63/63 35/51/51 36/52/52
f 94/86/86 93/93/93 36/52/52 37/53/53
f 95/84/84 94/86/86 37/53/53 38/54/54
f 39/55/55 96/82/82 95/84/84 38/54/54
f 40/56/56 97/77/77 96/82/82 39/55/55
f 41/57/57 98/70/70 97/77/77 40/56/56
f 83/71/71 98/70/70 41/57/57 26/43/43
