# This file uses centimeters as units for non-parametric coordinates.

mtllib Asteroid_01_Med.mtl
g default
v -6.452770 6.069365 8.267104
v 7.439896 6.582083 7.962475
v -8.284642 7.603407 -8.098034
v 8.575886 8.485945 -7.398435
v -7.502542 5.959284 4.620324
v 8.078890 6.685690 4.891302
v -6.844350 6.960715 0.497413
v 8.528623 7.514494 0.657558
v -9.325073 7.528510 -4.016044
v 9.688289 8.392039 -3.825145
v 5.071833 8.311812 -11.161394
v 6.444437 9.983527 -6.345260
v 5.923886 9.381293 0.089684
v 5.308689 7.859091 7.304766
v 5.000834 6.582083 10.305454
v -0.325574 8.280394 -11.840230
v 1.088426 9.884108 -7.859588
v 2.176852 9.402152 -0.004961
v 0.946458 7.859091 8.724449
v 1.395798 6.582083 11.654440
v -5.677970 7.977377 -9.821724
v -3.657459 9.961207 -5.889974
v -2.870075 9.297850 0.468267
v -4.405313 7.660162 7.092315
v -3.318466 6.160958 12.106238
v 9.419295 0.000000 10.044174
v 6.286666 0.000000 12.976819
v 1.656508 0.000000 14.665299
v -4.231389 0.000002 14.620052
v -8.311777 0.000000 9.976107
v -9.613626 0.000000 5.561585
v -8.925641 0.000000 0.561324
v -12.029922 0.030268 -4.782020
v -7.623271 0.252375 -9.520546
v -0.554352 0.000000 -15.271539
v 6.377854 0.000000 -14.399655
v 10.878314 0.000000 -9.566669
v 12.307041 0.000000 -4.977286
v 7.562121 -1.672090 3.116698
v 8.956428 3.178849 9.647883
v 5.983519 3.178849 12.503683
v 1.589438 3.178849 14.147924
v -4.012567 3.124974 14.150515
v -7.884910 2.784100 9.665540
v -9.120385 2.675343 5.346003
v -8.453717 3.409380 0.538521
v -11.294252 3.611147 -4.623683
v -9.996427 4.252953 -8.968814
v -7.146718 4.341294 -11.680135
v -0.508694 4.717186 -14.489102
v 6.070060 4.712748 -13.661693
v 10.341057 4.688149 -9.075123
v 11.696933 4.640286 -4.719735
v 10.283450 3.852826 0.744113
v 9.735282 3.178849 5.904511
v -6.452770 -6.069366 8.267104
v 7.439896 -6.582086 7.962475
v -8.284642 -7.603408 -8.098034
v 8.575886 -8.485948 -7.398435
v -7.502542 -5.959285 4.620324
v 8.078890 -6.685689 4.891302
v -6.665842 -6.078258 0.418159
v 8.528623 -7.514497 0.657558
v -9.325073 -7.528512 -4.016044
v 9.688289 -8.392040 -3.825145
v 5.071833 -8.311811 -11.161394
v 6.444437 -9.983527 -6.345260
v 5.924945 -8.686862 -0.010453
v 5.308689 -7.859090 7.304766
v 5.000834 -6.582086 10.305454
v -0.325574 -8.280397 -11.840230
v 1.088426 -9.884106 -7.859588
v 0.012184 -6.583168 -0.033924
v 0.946458 -7.859092 8.724449
v 1.395798 -6.582086 11.654440
v -5.677970 -7.977380 -9.821724
v -3.653963 -9.589017 -6.039506
v -4.405313 -7.660165 7.092315
v -3.013047 -6.075822 11.911189
v 8.956428 -3.178850 9.647883
v 5.983519 -3.178850 12.503683
v 1.589438 -3.178850 14.147924
v -4.012567 -3.124975 14.150515
v -7.884910 -2.784101 9.665540
v -9.120385 -2.675344 5.346003
v -8.453717 -3.409381 0.538521
v -11.644403 -3.870676 -4.705547
v -10.039319 -4.437744 -9.203603
v -7.146718 -4.341295 -11.680135
v -0.508694 -4.717187 -14.489102
v 6.489178 -5.094421 -14.599339
v 10.341057 -4.688150 -9.075123
v 11.696933 -4.640287 -4.719735
v -6.196495 -8.163217 -2.535918
v 4.960371 -9.845081 -4.907990
v 3.941451 -8.219535 5.594755
v 0.769838 -8.062734 7.564424
v 2.262870 -7.221090 3.301263
v 0.381890 -7.061077 3.986984
v -2.222937 -6.772970 3.745667
v -3.381364 -6.475816 2.288415
v -3.977803 -6.387939 0.415420
v -3.814502 -6.894300 -1.448026
v -2.307063 -7.796978 -3.519740
v 0.562387 -8.271564 -3.735826
v 2.870199 -8.190629 -2.502075
v 3.719835 -7.727590 0.280740
v -10.842851 -2.579427 -6.834056
v -11.723281 0.000000 -6.087193
v -10.841068 2.576554 -6.838793
v -2.874818 3.439103 -13.567063
v -1.884846 0.000000 -14.630509
v -3.533702 -3.083200 -13.310309
v -8.971248 -2.344514 -9.017097
v -9.443689 -1.245739 -7.890877
v -9.858674 0.199076 -7.629995
v -9.389747 1.556998 -8.034115
v -8.851562 2.815676 -9.083326
v -7.198951 2.724776 -10.571155
v -5.130868 1.998393 -11.350380
v -4.166416 0.210337 -12.010019
v -5.212232 -1.574234 -11.279783
v -7.128603 -2.488817 -10.266192
v 2.294111 -6.819070 -12.586310
v 1.733795 -4.715675 -14.207065
v 2.473291 -2.153932 -14.535769
v 9.465698 -1.384555 -10.769745
v 7.774905 -7.279855 -9.400468
v 5.872688 -7.317148 -13.055194
v 4.333822 -6.296737 -13.985497
v 3.977184 -5.096117 -14.915273
v 4.456088 -3.648038 -15.093415
v 6.654686 -2.560266 -14.996160
v 8.690693 -2.936634 -12.724385
v 9.497989 -5.077093 -11.368216
v 7.646531 -6.837129 -11.706561
v 8.749705 -5.176408 4.436750
v 9.014838 -5.906341 1.425697
v 9.928517 -5.648042 -0.833708
v 11.308327 -3.855817 -2.507895
v 11.765177 -0.467405 -2.747971
v 11.094737 1.941838 -1.292194
v 9.633552 -0.443222 8.370802
v 9.268878 -2.840627 8.162423
v 7.889920 -3.528499 3.782197
v 8.146600 -2.303091 5.870686
v 8.328030 -0.929609 6.149638
v 8.386113 1.215132 4.708042
v 8.710039 1.603985 1.662895
v 9.232578 0.677096 0.209875
v 9.722385 -0.821798 -0.967577
v 9.419832 -3.152275 -0.855926
v 8.486450 -4.159584 0.553389
v 7.957052 -4.164844 2.055990
vt -0.009359 0.119394
vt -0.194719 0.332232
vt -0.411916 0.265747
vt -0.174457 -0.040297
vt 1.086344 -0.130997
vt 1.218993 0.054691
vt 1.025350 0.194596
vt 0.945018 0.057443
vt 0.194220 0.023986
vt 0.083117 0.248693
vt 0.028593 0.926307
vt 0.202367 0.983711
vt 0.076405 1.208942
vt -0.151373 1.091681
vt 0.081757 -0.187438
vt 0.454843 0.056123
vt 0.422515 -0.205014
vt 0.465832 0.329538
vt 0.460103 0.996777
vt 0.437882 1.250992
vt 0.740981 -0.015102
vt 0.818177 -0.244213
vt 0.803971 0.307055
vt 0.717131 0.997286
vt 0.799531 1.217962
vt 0.889887 0.933315
vt 1.044811 1.113500
vt 1.073435 0.752780
vt 1.286549 0.843463
vt 0.825443 0.815539
vt 0.495941 0.814708
vt 0.083730 0.795621
vt -0.097964 0.783104
vt -0.319875 0.885964
vt 1.113353 0.481527
vt 1.346884 0.468643
vt 0.898748 0.549164
vt 0.492328 0.609075
vt 0.003264 0.551883
vt -0.171061 0.578591
vt -0.413817 0.600713
vt -0.513183 0.992148
vt -0.296624 1.261754
vt -0.627420 0.626353
vt -0.591106 0.190644
vt -0.294513 -0.183556
vt 0.010285 -0.362793
vt 0.386170 -0.446116
vt 0.860271 -0.496855
vt 1.353418 -0.222639
vt 1.652785 0.444689
vt 1.561950 0.969040
vt 1.233536 1.357463
vt 0.876585 1.519942
vt 0.197963 1.474736
vt -0.009359 0.119394
vt -0.194719 0.332232
vt -0.411916 0.265747
vt -0.174457 -0.040297
vt 1.086344 -0.130997
vt 1.218993 0.054691
vt 1.025350 0.194596
vt 0.945018 0.057443
vt 0.194220 0.023986
vt 0.083117 0.248693
vt 0.028593 0.926307
vt 0.202367 0.983711
vt 0.227553 1.352352
vt -0.151373 1.091681
vt 0.081757 -0.187438
vt 0.454843 0.056123
vt 0.422515 -0.205014
vt 0.479080 0.469306
vt 0.460103 0.996777
vt 0.740981 -0.015102
vt 0.818177 -0.244213
vt 0.803971 0.307055
vt 0.717131 0.997286
vt 0.799531 1.217962
vt 0.889887 0.933315
vt 1.044811 1.113500
vt 1.073435 0.752780
vt 1.286549 0.843463
vt 0.825443 0.815539
vt 0.495941 0.814708
vt 0.083730 0.795621
vt -0.097964 0.783104
vt -0.319875 0.885964
vt 1.113353 0.481527
vt 1.346884 0.468643
vt 0.898748 0.549164
vt 0.003264 0.551883
vt -0.171061 0.578591
vt -0.413817 0.600713
vt -0.513183 0.992148
vt -0.296624 1.261754
vt -0.627420 0.626353
vt -0.591106 0.190644
vt -0.294513 -0.183556
vt 0.010285 -0.362793
vt 0.386170 -0.446116
vt 0.860271 -0.496855
vt 1.353418 -0.222639
vt 1.652785 0.444689
vt 1.561950 0.969040
vt 1.233536 1.357463
vt 0.876585 1.519942
vt 0.649721 0.153692
vt 0.749751 0.739876
vt 0.179311 0.716730
vt 0.068255 0.540604
vt 0.315406 0.604400
vt 0.273667 0.504955
vt 0.281098 0.359000
vt 0.350652 0.268535
vt 0.465022 0.229656
vt 0.583499 0.276174
vt 0.665970 0.375973
vt 0.688914 0.509235
vt 0.623219 0.613391
vt 0.489287 0.678399
vt 0.996732 -0.237016
vt 0.954183 -0.444635
vt 0.954183 -0.444635
vt 0.997129 -0.237000
vt 1.348655 0.281345
vt 1.606936 0.342485
vt 1.606936 0.342485
vt 1.349148 0.229190
vt 1.195563 -0.168474
vt 1.153627 -0.230692
vt 1.142370 -0.339993
vt 1.142370 -0.339993
vt 1.165643 -0.230208
vt 1.210382 -0.173559
vt 1.281383 -0.074024
vt 1.351036 0.029353
vt 1.494081 0.090916
vt 1.494081 0.090916
vt 1.351089 0.023810
vt 1.281023 -0.073282
vt 1.184295 0.629778
vt 1.326318 0.596407
vt 1.485399 0.626946
vt 1.249111 1.206455
vt 1.016679 0.904594
vt 1.164167 0.791387
vt 1.232276 0.730046
vt 1.307971 0.710384
vt 1.391065 0.729662
vt 1.424250 0.906251
vt 1.263979 1.062294
vt 1.128198 1.020352
vt 1.116198 0.882051
vt 0.210081 1.096619
vt 0.395138 1.096110
vt 0.514632 1.144148
vt 0.643861 1.254537
vt 0.704017 1.475382
vt 0.696149 1.507922
vt 0.545819 1.326257
vt -0.164464 1.284596
vt -0.171924 1.315453
vt -0.061178 1.153728
vt 0.218219 1.215739
vt 0.067348 1.242144
vt -0.002860 1.312527
vt -0.019444 1.381115
vt 0.126126 1.317660
vt 0.339343 1.342887
vt 0.421681 1.379244
vt 0.552653 1.436297
vt 0.537884 1.497380
vt 0.515278 1.284749
vt 0.408890 1.220837
vt 0.327031 1.200247
vn -0.695527 0.626030 0.352603
vn -0.830839 0.346410 0.435553
vn -0.392506 0.393554 0.831297
vn -0.340811 0.775752 0.531090
vn -0.834271 0.073732 -0.546403
vn -0.643945 0.674650 -0.360807
vn -0.383963 0.768891 -0.511253
vn -0.532445 0.046935 -0.845162
vn -0.726412 0.672724 0.140598
vn -0.300328 0.925393 0.231193
vn 0.655812 0.659393 0.367576
vn 0.823426 0.352791 0.444420
vn 0.999135 0.034331 0.023486
vn 0.706269 0.674009 0.216556
vn -0.945298 0.315232 0.083912
vn -0.708575 0.676688 0.200039
vn -0.937297 0.280237 0.207223
vn -0.244875 0.957375 0.153200
vn 0.956554 0.013727 0.291233
vn 0.708900 0.668440 0.225054
vn -0.678753 0.728788 0.090340
vn -0.956237 0.288231 0.050336
vn -0.240015 0.969060 -0.057577
vn 0.961037 0.270445 0.057168
vn 0.697786 0.716098 -0.017264
vn 0.811179 0.350949 -0.467785
vn 0.650831 0.654278 -0.385148
vn 0.324359 0.775444 -0.541736
vn 0.419413 0.392679 -0.818472
vn 0.241742 0.964708 -0.104396
vn 0.251937 0.951996 0.173870
vn 0.292718 0.916438 0.272868
vn 0.375556 0.761020 0.528967
vn 0.490046 0.383989 0.782565
vn -0.088313 0.792603 -0.603308
vn -0.199026 0.323000 -0.925235
vn -0.025948 0.989197 -0.144278
vn -0.005417 0.990754 0.135563
vn 0.005309 0.959243 0.282532
vn 0.087584 0.788081 0.609309
vn 0.164646 0.382575 0.909136
vn 0.527779 0.000000 0.849382
vn 0.882025 -0.010499 0.471086
vn 0.173640 0.000000 0.984809
vn -0.417989 0.000000 0.908452
vn -0.879229 0.000000 0.476399
vn -0.997064 0.000000 0.076568
vn -0.979580 0.011398 0.200731
vn -0.993832 0.033026 0.105867
vn -0.672250 -0.310792 -0.671928
vn -0.622854 -0.024021 -0.781969
vn -0.679897 -0.157036 -0.716296
vn -0.543993 -0.356702 -0.759497
vn -0.559454 -0.215224 -0.800431
vn -0.660608 0.018829 -0.750495
vn 0.437130 0.091867 -0.894694
vn -0.102901 -0.033983 -0.994111
vn 0.841132 -0.031707 -0.539900
vn 0.999516 -0.001018 -0.031090
vn 0.818333 -0.204091 0.537288
vn 0.879764 -0.096244 0.465566
vn 0.894209 -0.353531 0.274601
vn 0.925560 -0.349955 -0.144467
vn 0.982021 -0.112443 -0.151629
vn 0.927694 -0.158938 -0.337820
vn -0.675909 -0.640952 0.363767
vn -0.331806 -0.778186 0.533228
vn -0.386336 -0.410918 0.825767
vn -0.823744 -0.359191 0.438666
vn -0.817681 -0.055132 -0.573026
vn -0.527382 -0.055513 -0.847813
vn -0.366391 -0.786594 -0.497018
vn -0.598681 -0.716050 -0.358962
vn -0.559793 -0.828024 0.031763
vn -0.199274 -0.978059 0.060759
vn 0.987608 -0.082540 -0.133481
vn 0.999497 0.016414 -0.027153
vn 0.945875 0.283789 -0.157432
vn 0.947450 0.078678 -0.310077
vn -0.940305 -0.332592 0.072172
vn -0.472378 -0.820508 0.321911
vn -0.924488 -0.311725 0.219429
vn -0.032671 -0.982735 0.182109
vn -0.139412 -0.981016 0.134802
vn -0.119000 -0.987320 -0.105067
vn 0.946713 0.284540 0.150902
vn 0.977287 0.043260 0.207458
vn -0.565367 -0.803107 0.188093
vn -0.963038 -0.267543 0.031289
vn 0.048683 -0.912900 0.405269
vn 0.014598 -0.901545 0.432438
vn 0.894889 -0.060390 0.442185
vn 0.873586 0.111964 0.473616
vn -0.119187 -0.981741 0.148256
vn 0.952818 -0.303378 -0.010029
vn 0.733028 -0.677222 0.063562
vn 0.641460 -0.631357 -0.435795
vn 0.841922 -0.346926 -0.413292
vn 0.609780 -0.687094 -0.395056
vn 0.258549 -0.770814 -0.582235
vn 0.418915 -0.393010 -0.818568
vn 0.188642 -0.981492 -0.032993
vn 0.261939 -0.824802 -0.501089
vn 0.031585 -0.985565 0.166327
vn 0.682161 -0.692486 0.234773
vn 0.239242 -0.944374 0.225657
vn 0.714279 -0.671211 0.198194
vn 0.375556 -0.761020 0.528967
vn 0.672231 -0.648738 0.356712
vn 0.490046 -0.383989 0.782565
vn 0.830059 -0.350974 0.433381
vn -0.079964 -0.676597 -0.731999
vn -0.073111 -0.996426 0.042299
vn -0.052798 -0.762115 -0.645285
vn -0.123614 -0.907411 0.401653
vn -0.270055 -0.908580 0.318673
vn -0.119283 -0.975011 -0.187418
vn -0.261528 -0.959617 -0.103624
vn 0.076128 -0.789069 0.609569
vn -0.005753 -0.959904 0.280271
vn 0.159270 -0.389508 0.907148
vn -0.198741 -0.323473 -0.925131
vn -0.115320 -0.974172 -0.194140
vn -0.656955 0.309493 -0.687477
vn -0.702655 0.153761 -0.694719
vn -0.543479 0.297507 -0.784933
vn -0.601479 0.189247 -0.776150
vn -0.035252 -0.031750 -0.998874
vn 0.429459 0.051888 -0.901595
vn 0.804453 0.008626 -0.593954
vn 0.799740 -0.035140 0.599317
vn 0.851681 -0.105913 0.513247
vn 0.860937 -0.079796 0.502414
vn 0.793323 -0.117325 0.597388
vn -0.352091 -0.928317 0.119413
vn -0.103845 -0.896651 0.430387
vn -0.133199 -0.963688 0.231438
vn -0.117512 -0.993029 -0.009172
vn -0.075283 -0.996071 -0.046650
vn -0.637578 -0.015710 -0.770226
vn -0.840619 0.065605 -0.537639
vn -0.820546 0.017032 -0.571326
vn -0.855364 -0.003627 -0.518015
vn -0.519517 -0.082156 -0.850501
vn -0.593126 0.020611 -0.804846
vn -0.543308 0.098696 -0.833712
vn -0.106852 -0.378288 -0.919501
vn 0.801096 -0.354943 -0.481935
vn -0.079964 -0.676597 -0.731999
vn -0.106852 -0.378288 -0.919501
vn -0.035252 -0.031750 -0.998874
vn 0.804453 0.008626 -0.593954
vn 0.609780 -0.687094 -0.395056
vn 0.983812 -0.076006 0.162290
s 1
g polySurface12
usemtl lambert3SG
f 1/1/1 44/4/2 43/3/3 25/2/4
f 48/5/5 3/8/6 21/7/7 49/6/8
f 5/9/9 1/1/1 25/2/4 24/10/10
f 2/11/11 40/14/12 55/13/13 6/12/14
f 5/9/9 45/15/15 44/4/2 1/1/1
f 7/16/16 46/17/17 45/15/15 5/9/9
f 7/16/16 5/9/9 24/10/10 23/18/18
f 55/13/13 54/20/19 8/19/20 6/12/14
f 9/21/21 47/22/22 46/17/17 7/16/16
f 9/21/21 7/16/16 23/18/18 22/23/23
f 54/20/19 53/25/24 10/24/25 8/19/20
f 3/8/6 48/5/5 47/22/22 9/21/21
f 3/8/6 9/21/21 22/23/23 21/7/7
f 53/25/24 52/27/26 4/26/27 10/24/25
f 11/28/28 4/26/27 52/27/26 51/29/29
f 12/30/30 10/24/25 4/26/27 11/28/28
f 13/31/31 8/19/20 10/24/25 12/30/30
f 14/32/32 6/12/14 8/19/20 13/31/31
f 15/33/33 2/11/11 6/12/14 14/32/32
f 41/34/34 40/14/12 2/11/11 15/33/33
f 16/35/35 11/28/28 51/29/29 50/36/36
f 17/37/37 12/30/30 11/28/28 16/35/35
f 18/38/38 13/31/31 12/30/30 17/37/37
f 19/39/39 14/32/32 13/31/31 18/38/38
f 20/40/40 15/33/33 14/32/32 19/39/39
f 42/41/41 41/34/34 15/33/33 20/40/40
f 21/7/7 16/35/35 50/36/36 49/6/8
f 22/23/23 17/37/37 16/35/35 21/7/7
f 23/18/18 18/38/38 17/37/37 22/23/23
f 24/10/10 19/39/39 18/38/38 23/18/18
f 25/2/4 20/40/40 19/39/39 24/10/10
f 43/3/3 42/41/41 20/40/40 25/2/4
f 27/42/42 26/43/43 40/14/12 41/34/34
f 28/44/44 27/42/42 41/34/34 42/41/41
f 29/45/45 28/44/44 42/41/41 43/3/3
f 44/4/2 30/46/46 29/45/45 43/3/3
f 45/15/15 31/47/47 30/46/46 44/4/2
f 46/17/17 32/48/48 31/47/47 45/15/15
f 47/22/22 33/49/49 32/48/48 46/17/17
f 118/135/50 34/50/51 117/134/52
f 34/50/51 118/135/50 119/136/53
f 120/137/54 121/139/55 34/50/51
f 51/29/29 36/52/56 35/51/57 50/36/36
f 52/27/26 37/53/58 36/52/56 51/29/29
f 38/54/59 37/53/58 52/27/26 53/25/24
f 150/171/60 142/161/61 54/20/19 149/170/62
f 149/170/62 54/20/19 55/13/13 148/169/63
f 55/13/13 143/163/64 147/168/65 148/169/63
f 56/56/66 79/57/67 83/58/68 84/59/69
f 88/60/70 89/61/71 76/62/72 58/63/73
f 60/64/74 78/65/75 79/57/67 56/56/66
f 144/164/76 137/155/77 145/165/78 146/166/79
f 60/64/74 56/56/66 84/59/69 85/70/80
f 62/71/81 60/64/74 85/70/80 86/72/82
f 102/116/83 73/73/84 101/115/85
f 154/176/86 145/165/78 137/155/77 138/156/87
f 64/75/88 62/71/81 86/72/82 87/76/89
f 103/117/90 104/118/91 73/73/84
f 154/176/86 138/156/87 139/157/92 153/175/93
f 58/63/73 64/75/88 87/76/89 88/60/70
f 58/63/73 76/62/72 77/77/94 64/75/88
f 93/79/95 65/78/96 59/80/97 92/81/98
f 136/154/99 129/147/100 91/83/101
f 67/84/102 66/82/103 59/80/97 65/78/96
f 68/85/104 67/84/102 65/78/96 63/74/105
f 69/86/106 68/85/104 63/74/105 61/67/107
f 70/87/108 69/86/106 61/67/107 57/66/109
f 81/88/110 70/87/108 57/66/109 80/69/111
f 130/148/112 91/83/101 129/147/100
f 72/91/113 71/89/114 66/82/103 67/84/102
f 73/73/84 105/119/115 106/120/116
f 99/113/117 73/73/84 98/112/118
f 75/93/119 74/92/120 69/86/106 70/87/108
f 82/94/121 75/93/119 70/87/108 81/88/110
f 76/62/72 89/61/71 90/90/122 71/89/114
f 77/77/94 76/62/72 71/89/114 72/91/113
f 73/73/84 104/118/91 105/119/115
f 100/114/123 73/73/84 99/113/117
f 79/57/67 78/65/75 74/92/120 75/93/119
f 83/58/68 79/57/67 75/93/119 82/94/121
f 27/95/42 81/88/110 80/69/111 26/96/43
f 28/97/44 82/94/121 81/88/110 27/95/42
f 29/98/45 83/58/68 82/94/121 28/97/44
f 84/59/69 83/58/68 29/98/45 30/99/46
f 85/70/80 84/59/69 30/99/46 31/100/47
f 86/72/82 85/70/80 31/100/47 32/101/48
f 87/76/89 86/72/82 32/101/48 33/102/49
f 114/130/124 115/131/125 34/103/51
f 34/103/51 123/141/126 114/130/124
f 122/140/127 34/103/51 121/138/55
f 91/83/101 132/150/128 133/151/129
f 134/152/130 91/83/101 133/151/129
f 38/107/59 93/79/95 92/81/98 37/106/58
f 152/174/131 140/158/132 141/159/133 151/172/134
f 144/164/76 146/166/79 147/167/65 143/162/64
f 103/117/90 73/73/84 102/116/83
f 73/73/84 106/120/116 107/121/135
f 107/121/135 98/112/118 73/73/84
f 101/115/85 73/73/84 100/114/123
f 64/75/88 94/108/136 62/71/81
f 64/75/88 77/77/94 94/108/136
f 95/109/137 72/91/113 67/84/102
f 68/85/104 95/109/137 67/84/102
f 69/86/106 96/110/138 68/85/104
f 74/92/120 97/111/139 96/110/138 69/86/106
f 78/65/75 97/111/139 74/92/120
f 97/111/139 99/113/117 98/112/118 96/110/138
f 78/65/75 100/114/123 99/113/117 97/111/139
f 60/64/74 101/115/85 100/114/123 78/65/75
f 62/71/81 102/116/83 101/115/85 60/64/74
f 94/108/136 103/117/90 102/116/83 62/71/81
f 94/108/136 77/77/94 104/118/91 103/117/90
f 105/119/115 104/118/91 77/77/94 72/91/113
f 106/120/116 105/119/115 72/91/113 95/109/137
f 107/121/135 106/120/116 95/109/137 68/85/104
f 96/110/138 98/112/118 107/121/135 68/85/104
f 34/103/51 115/131/125 116/132/140
f 117/134/52 34/50/51 116/133/140
f 122/140/127 123/141/126 34/103/51
f 120/137/54 34/50/51 119/136/53
f 88/60/70 87/76/89 108/122/141
f 109/123/142 108/122/141 87/76/89 33/102/49
f 47/22/22 110/125/143 109/124/142 33/49/49
f 48/5/5 110/125/143 47/22/22
f 50/36/36 111/126/144 49/6/8
f 50/36/36 35/51/57 112/128/145 111/126/144
f 90/90/122 113/129/146 112/127/145 35/104/57
f 90/90/122 89/61/71 113/129/146
f 88/60/70 108/122/141 115/131/125 114/130/124
f 116/132/140 115/131/125 108/122/141 109/123/142
f 110/125/143 117/134/52 116/133/140 109/124/142
f 48/5/5 118/135/50 117/134/52 110/125/143
f 119/136/53 118/135/50 48/5/5 49/6/8
f 111/126/144 120/137/54 119/136/53 49/6/8
f 111/126/144 112/128/145 121/139/55 120/137/54
f 113/129/146 122/140/127 121/138/55 112/127/145
f 113/129/146 89/61/71 123/141/126 122/140/127
f 114/130/124 123/141/126 89/61/71 88/60/70
f 130/148/112 131/149/147 91/83/101
f 91/83/101 131/149/147 132/150/128
f 135/153/148 91/83/101 134/152/130
f 136/154/99 91/83/101 135/153/148
f 71/89/114 124/142/149 66/82/103
f 71/89/114 90/90/122 125/143/150 124/142/149
f 126/144/151 125/143/150 90/90/122 35/104/57
f 36/105/56 126/144/151 35/104/57
f 37/106/58 127/145/152 36/105/56
f 92/81/98 127/145/152 37/106/58
f 59/80/97 128/146/153 92/81/98
f 66/82/103 128/146/153 59/80/97
f 124/142/149 130/148/112 129/147/100 66/82/103
f 124/142/149 125/143/150 131/149/147 130/148/112
f 132/150/128 131/149/147 125/143/150 126/144/151
f 133/151/129 132/150/128 126/144/151 36/105/56
f 127/145/152 134/152/130 133/151/129 36/105/56
f 92/81/98 135/153/148 134/152/130 127/145/152
f 128/146/153 136/154/99 135/153/148 92/81/98
f 66/82/103 129/147/100 136/154/99 128/146/153
f 137/155/77 61/67/107 63/74/105 138/156/87
f 153/175/93 139/157/92 140/158/132 152/174/131
f 139/157/92 138/156/87 63/74/105 65/78/96
f 140/158/132 139/157/92 65/78/96 93/79/95
f 141/159/133 140/158/132 93/79/95 38/107/59
f 151/173/134 141/160/133 142/161/61 150/171/60
f 142/161/61 141/160/133 38/54/59 53/25/24
f 54/20/19 142/161/61 53/25/24
f 40/14/12 26/43/43 143/163/64 55/13/13
f 80/69/111 144/164/76 143/162/64 26/96/43
f 57/66/109 61/67/107 137/155/77 144/164/76 80/69/111
f 146/166/79 145/165/78 39/68/154
f 147/167/65 146/166/79 39/68/154
f 148/169/63 147/168/65 39/55/154
f 39/55/154 149/170/62 148/169/63
f 39/55/154 150/171/60 149/170/62
f 39/55/154 151/173/134 150/171/60
f 39/68/154 152/174/131 151/172/134
f 39/68/154 153/175/93 152/174/131
f 39/68/154 154/176/86 153/175/93
f 39/68/154 145/165/78 154/176/86
